<?xml version="1.0" encoding="UTF-8" standalone="no"?>
<!-- Created with Inkscape (http://www.inkscape.org/) -->

<svg
   xmlns:dc="http://purl.org/dc/elements/1.1/"
   xmlns:cc="http://creativecommons.org/ns#"
   xmlns:rdf="http://www.w3.org/1999/02/22-rdf-syntax-ns#"
   xmlns:svg="http://www.w3.org/2000/svg"
   xmlns="http://www.w3.org/2000/svg"
   xmlns:sodipodi="http://sodipodi.sourceforge.net/DTD/sodipodi-0.dtd"
   xmlns:inkscape="http://www.inkscape.org/namespaces/inkscape"
   width="48"
   height="48"
   viewBox="0 0 12.7 12.7"
   version="1.1"
   id="svg8"
   sodipodi:docname="dollar.svg"
   inkscape:version="0.92.3 (unknown)">
  <defs
     id="defs2" />
  <sodipodi:namedview
     id="base"
     pagecolor="#ffffff"
     bordercolor="#666666"
     borderopacity="1.0"
     inkscape:pageopacity="0.0"
     inkscape:pageshadow="2"
     inkscape:zoom="12.541667"
     inkscape:cx="18.139535"
     inkscape:cy="24"
     inkscape:document-units="px"
     inkscape:current-layer="layer1"
     showgrid="true"
     units="px"
     inkscape:snap-smooth-nodes="true"
     inkscape:snap-bbox="true"
     inkscape:object-paths="true"
     inkscape:window-width="1317"
     inkscape:window-height="744"
     inkscape:window-x="1969"
     inkscape:window-y="336"
     inkscape:window-maximized="1">
    <inkscape:grid
       type="xygrid"
       id="grid10" />
  </sodipodi:namedview>
  <metadata
     id="metadata5">
    <rdf:RDF>
      <cc:Work
         rdf:about="">
        <dc:format>image/svg+xml</dc:format>
        <dc:type
           rdf:resource="http://purl.org/dc/dcmitype/StillImage" />
        <dc:title></dc:title>
      </cc:Work>
    </rdf:RDF>
  </metadata>
  <g
     inkscape:label="Layer 1"
     inkscape:groupmode="layer"
     id="layer1"
     transform="translate(0,-284.3)">
    <path
       style="fill:none;stroke:#b1b1b1;stroke-width:0.28978172px;stroke-linecap:butt;stroke-linejoin:miter;stroke-opacity:1"
       d="M 7.3075395,284.56458 H 5.5688491 l 10e-8,1.44892 c -1.8376207,0.24399 -2.7716961,1.27273 -2.8978175,2.89781 0.2614828,2.52437 1.8880236,2.02702 2.8978174,2.60803 v 2.31826 c -0.672818,-0.0329 -1.1740797,-0.27761 -1.159127,-1.15913 H 2.38125 c 0.074273,1.7525 1.2960481,2.70386 3.1875991,3.1876 l 10e-8,0.86935 h 1.7386903 v -1.15913 c 1.3572465,-0.0529 2.8978175,-0.28979 3.1875995,-2.60803 0,-2.60804 -1.7386907,-2.31826 -3.1875994,-2.60804 l -1e-7,-2.89782 c 0.8286066,0.19313 0.8693454,0.57956 0.8693454,1.73869 h 1.7386904 c 10e-8,-1.44891 10e-8,-2.60804 -2.6080358,-3.18759 z"
       id="path3812"
       inkscape:connector-curvature="0"
       sodipodi:nodetypes="ccccccccccccccccccc" />
    <path
       style="fill:none;stroke:#b1b1b1;stroke-width:0.28978172px;stroke-linecap:butt;stroke-linejoin:miter;stroke-opacity:1"
       d="m 5.5688491,287.4624 v 2.02848 c -0.7455295,-0.0982 -1.1656969,-0.36982 -1.159127,-0.86935 0.016646,-0.71767 0.3287916,-1.17057 1.159127,-1.15913 z"
       id="path3814"
       inkscape:connector-curvature="0"
       sodipodi:nodetypes="cccc" />
    <path
       style="fill:none;stroke:#b1b1b1;stroke-width:0.28978172px;stroke-linecap:butt;stroke-linejoin:miter;stroke-opacity:1"
       d="m 7.3075395,291.80912 1e-7,2.31826 c 0.9150994,-0.007 1.4489087,-0.57956 1.4489086,-1.15912 1e-7,-0.57957 -0.3971404,-1.10058 -1.4489087,-1.15914 z"
       id="path3816"
       inkscape:connector-curvature="0"
       sodipodi:nodetypes="cccc" />
  </g>
</svg>
