<?xml version="1.0" encoding="UTF-8" standalone="no"?>
<!-- Created with Inkscape (http://www.inkscape.org/) -->

<svg
   xmlns:dc="http://purl.org/dc/elements/1.1/"
   xmlns:cc="http://creativecommons.org/ns#"
   xmlns:rdf="http://www.w3.org/1999/02/22-rdf-syntax-ns#"
   xmlns:svg="http://www.w3.org/2000/svg"
   xmlns="http://www.w3.org/2000/svg"
   xmlns:sodipodi="http://sodipodi.sourceforge.net/DTD/sodipodi-0.dtd"
   xmlns:inkscape="http://www.inkscape.org/namespaces/inkscape"
   width="48"
   height="48"
   viewBox="0 0 12.7 12.7"
   version="1.1"
   id="svg8"
   sodipodi:docname="percent.svg"
   inkscape:version="0.92.3 (unknown)">
  <defs
     id="defs2" />
  <sodipodi:namedview
     id="base"
     pagecolor="#ffffff"
     bordercolor="#666666"
     borderopacity="1.0"
     inkscape:pageopacity="0.0"
     inkscape:pageshadow="2"
     inkscape:zoom="12.541667"
     inkscape:cx="18.139535"
     inkscape:cy="24"
     inkscape:document-units="px"
     inkscape:current-layer="layer1"
     showgrid="true"
     units="px"
     inkscape:snap-smooth-nodes="true"
     inkscape:snap-bbox="true"
     inkscape:object-paths="true"
     inkscape:window-width="1317"
     inkscape:window-height="744"
     inkscape:window-x="1969"
     inkscape:window-y="336"
     inkscape:window-maximized="1">
    <inkscape:grid
       type="xygrid"
       id="grid10" />
  </sodipodi:namedview>
  <metadata
     id="metadata5">
    <rdf:RDF>
      <cc:Work
         rdf:about="">
        <dc:format>image/svg+xml</dc:format>
        <dc:type
           rdf:resource="http://purl.org/dc/dcmitype/StillImage" />
        <dc:title></dc:title>
      </cc:Work>
    </rdf:RDF>
  </metadata>
  <g
     inkscape:label="Layer 1"
     inkscape:groupmode="layer"
     id="layer1"
     transform="translate(0,-284.3)">
    <path
       style="fill:none;stroke:#b1b1b1;stroke-width:0.26458332px;stroke-linecap:butt;stroke-linejoin:miter;stroke-opacity:1"
       d="m 3.175,285.09375 c -1.5875,0 -2.38124999,0.79375 -2.64583333,2.38125 1e-8,1.32292 1.05833333,2.64583 2.38124993,2.64583 0.7937501,0 2.3812501,-0.79375 2.3812501,-2.38125 0,-1.05833 -0.2645834,-2.38125 -2.1166667,-2.64583 z"
       id="path4746"
       inkscape:connector-curvature="0"
       sodipodi:nodetypes="ccccc" />
    <path
       style="fill:none;stroke:#b1b1b1;stroke-width:0.26458332px;stroke-linecap:butt;stroke-linejoin:miter;stroke-opacity:1"
       d="m 2.9104167,286.68125 c -0.6572195,0.15538 -0.6594377,0.49293 -0.79375,0.79375 0,0.26458 0.1995771,0.67087 0.79375,0.79375 0.3850015,-0.0962 0.7009884,-0.28889 0.79375,-0.79375 0,-0.52917 -0.1995867,-0.67086 -0.79375,-0.79375 z"
       id="path4748"
       inkscape:connector-curvature="0"
       sodipodi:nodetypes="ccccc" />
    <path
       style="fill:none;stroke:#b1b1b1;stroke-width:0.26458332px;stroke-linecap:butt;stroke-linejoin:miter;stroke-opacity:1"
       d="m 10.054167,290.91459 c -1.5875004,0 -2.3812504,0.79375 -2.6458338,2.38125 0,1.32292 1.0583334,2.64583 2.38125,2.64583 0.7937498,0 2.3812498,-0.79375 2.3812498,-2.38125 0,-1.05833 -0.264583,-2.38125 -2.116666,-2.64583 z"
       id="path4746-7"
       inkscape:connector-curvature="0"
       sodipodi:nodetypes="ccccc" />
    <path
       style="fill:none;stroke:#b1b1b1;stroke-width:0.26458332px;stroke-linecap:butt;stroke-linejoin:miter;stroke-opacity:1"
       d="m 9.7895833,292.50209 c -0.6572195,0.15538 -0.6594377,0.49293 -0.79375,0.79375 0,0.26458 0.1995771,0.67087 0.79375,0.79375 0.3850017,-0.0962 0.7009887,-0.28889 0.7937497,-0.79375 0,-0.52917 -0.199586,-0.67086 -0.7937497,-0.79375 z"
       id="path4748-5"
       inkscape:connector-curvature="0"
       sodipodi:nodetypes="ccccc" />
    <path
       style="fill:none;stroke:#b1b1b1;stroke-width:0.26458332px;stroke-linecap:butt;stroke-linejoin:miter;stroke-opacity:1"
       d="M 7.9374999,285.62292 2.38125,295.67708 h 2.3812499 l 5.2916671,-10.05416 z"
       id="path4786"
       inkscape:connector-curvature="0" />
  </g>
</svg>
